<svg baseProfile="tiny" xmlns="http://www.w3.org/2000/svg" viewBox="0 0 329 109">
	<defs/>
	<path fill="none" d="M51.7 98.6c-1.2 0-1.8.8-1.9 1.9h3.6c-.1-1-.5-1.9-1.7-1.9z"/>
	<path fill="#A7CD74" d="M249.3 26h79L319.1.6z"/>
	<path fill="#005694" d="M18.2 103.9c-1.7 0-2.3-1.2-2.3-3.1v-6.4h-2.2v7.1c0 3 1.7 4.2 4.5 4.2s4.5-1.2 4.5-4.2v-7.1h-2.2v6.4c0 1.9-.6 3.1-2.3 3.1zM25.2 97.3v8.2h2.1v-4c0-1 .3-2.7 1.9-2.7 1.4 0 1.4 1.4 1.4 2.4v4.4h2.1v-5.2c0-1.8-.8-3.2-2.8-3.2-1.1 0-2 .4-2.7 1.3v-1.1h-2zM35.1 97.3h2.1v8.2h-2.1zM35.1 93.7h2.1v2h-2.1zM47.1 97.3h-2.2l-1.9 5.9h-.1l-2-5.9h-2.3l3.1 8.2h2.4zM51.5 97.1c-2.5 0-3.8 2-3.8 4.3 0 2.7 1.6 4.2 4.3 4.2 1.1 0 2-.2 2.8-.7v-1.7c-.8.4-1.7.8-2.7.8-1.3 0-2.2-.7-2.3-2.1h5.7c-.1-2.7-.9-4.8-4-4.8zm-1.7 3.5c.1-1.1.7-1.9 1.9-1.9s1.7.9 1.7 1.9h-3.6zM57.3 97.3v8.2h2.1v-3c0-1.2 0-3.3 1.7-3.3.4 0 .8.1 1 .2v-2.1c-.2-.1-.4-.1-.7-.1-1.3 0-2.1 1.3-2.2 2.1v-1.9h-1.9zM66.8 98.6c.8 0 1.3.1 1.9.4l.1-1.6c-.7-.1-1.3-.3-2.3-.3-1.7 0-3.2.8-3.2 2.5 0 3 3.7 1.9 3.7 3.5 0 .8-.9 1-1.4 1-.7 0-1.4-.2-2.1-.5l-.1 1.8c.8.2 1.6.3 2.4.3 1.7 0 3.4-.8 3.4-2.7 0-3-3.7-2.1-3.7-3.4 0-.7.7-1 1.3-1zM71.1 97.3h2.1v8.2h-2.1zM71.1 93.7h2.1v2h-2.1z"/>
	<g fill="#005694">
		<path d="M76.2 103c0 1.6.9 2.7 2.6 2.7.6 0 1.1-.1 1.6-.2l-.1-1.7c-.2.1-.6.2-1 .2-.8 0-1-.7-1-1.4v-3.8h1.9v-1.6h-1.9v-2.3l-2.1.7v1.6h-1.6v1.6h1.6v4.2zM86.7 105.4l3.1-8.1h-2.2l-2 6-2-6h-2.4l3.1 8.6c0 .9-.5 1.5-1.4 1.5-.5 0-.8 0-1.1-.1l-.1 1.6c.2.1.5.1.7.2h1.3c1.9-.4 2.4-2.1 3-3.7z"/>
	</g>
	<g>
		<path fill="none" d="M131.6 104c1.4 0 1.8-1.5 1.8-2.7 0-1.1-.4-2.6-1.8-2.6s-1.9 1.5-1.9 2.6c0 1.2.5 2.7 1.9 2.7zM141.6 104c1.4 0 1.8-1.5 1.8-2.7 0-1.1-.4-2.6-1.8-2.6s-1.9 1.5-1.9 2.6c0 1.2.4 2.7 1.9 2.7zM169.1 98.7c-1.4 0-1.8 1.5-1.8 2.6s.4 2.7 1.8 2.7 1.9-1.5 1.9-2.7c0-1.1-.5-2.6-1.9-2.6zM160 98.6c-1.2 0-1.8.8-1.9 1.9h3.6c-.1-1-.5-1.9-1.7-1.9zM97.2 101.2c0 1.4.4 2.8 2.1 2.8 1.6 0 2.1-1.5 2.1-2.8 0-1.3-.7-2.4-2.1-2.4-1.5-.1-2.1 1.2-2.1 2.4zM105.3 65h-3.6v10.3h3.5c4.3 0 8.7-.6 8.7-5.1 0-4.8-4.5-5.2-8.6-5.2zM112.8 52.4c0-4-3.8-4.4-7.7-4.4h-3.4v9h3.3c3.9.1 7.8-.9 7.8-4.6zM230.2 98.6c-1.2 0-1.8.8-1.9 1.9h3.6c0-1-.5-1.9-1.7-1.9zM120.4 96.6l-1.6 4.6h3.3l-1.6-4.6zM204.1 98.6c-1.2 0-1.8.8-1.9 1.9h3.6c0-1-.5-1.9-1.7-1.9z"/>
		<path fill="#005694" d="M94.9 101.4c0 2.4 1.6 4.2 4.3 4.2 2.7 0 4.3-1.9 4.3-4.2 0-2.7-1.9-4.3-4.3-4.3s-4.3 1.6-4.3 4.3zm6.4-.2c0 1.4-.4 2.8-2.1 2.8-1.6 0-2.1-1.5-2.1-2.8 0-1.2.7-2.4 2.1-2.4 1.4-.1 2.1 1.1 2.1 2.4zM109.1 95c.5 0 .7.2.9.3l.2-1.8c-.4-.1-1-.2-1.6-.2-1.7 0-2.6 1.1-2.6 2.8v1.1h-1.6v1.6h1.6v6.6h2.1v-6.6h1.9v-1.6h-1.9v-1c.1-.6.3-1.2 1-1.2zM119.2 94.4l-4.3 11.1h2.3l1-2.5h4.5l1 2.5h2.5l-4.4-11.1h-2.6zm-.4 6.8l1.6-4.6 1.6 4.6h-3.2zM127.6 97.3v11.5h2.1v-4.3c.7.9 1.5 1.1 2.4 1.1 2.6 0 3.5-2.1 3.5-4.3 0-2.3-.9-4.3-3.4-4.3-1.3 0-2.1.6-2.5 1.4v-1.2h-2.1zm4.1 1.4c1.4 0 1.8 1.5 1.8 2.6s-.4 2.7-1.8 2.7-1.9-1.5-1.9-2.7c-.1-1.1.5-2.6 1.9-2.6zM142.1 105.7c2.6 0 3.5-2.1 3.5-4.3 0-2.3-.9-4.3-3.4-4.3-1.3 0-2.1.6-2.5 1.4v-1.2h-2v11.5h2.1v-4.3c.6.9 1.4 1.2 2.3 1.2zm-.5-7c1.4 0 1.8 1.5 1.8 2.6s-.4 2.7-1.8 2.7-1.9-1.5-1.9-2.7c0-1.1.5-2.6 1.9-2.6zM147.5 93.5v12h2.1v-12zM152 97.3h2.1v8.2H152zM152 93.7h2.1v2H152zM159.8 97.1c-2.5 0-3.8 2-3.8 4.3 0 2.7 1.6 4.2 4.3 4.2 1.1 0 2-.2 2.8-.7v-1.7c-.8.4-1.7.8-2.7.8-1.3 0-2.2-.7-2.3-2.1h5.7c-.1-2.7-.9-4.8-4-4.8zm-1.7 3.5c.1-1.1.7-1.9 1.9-1.9s1.7.9 1.7 1.9h-3.6zM173.2 105.5V93.6H171v4.7c-.6-.8-1.4-1.1-2.4-1.1-2.5 0-3.4 2-3.4 4.3 0 2.2.9 4.3 3.4 4.3 1 0 1.9-.3 2.5-1.1v.9h2.1zm-4-1.5c-1.4 0-1.8-1.5-1.8-2.7 0-1.1.4-2.6 1.8-2.6s1.9 1.5 1.9 2.6c-.1 1.2-.5 2.7-1.9 2.7zM182.5 103.9c-.9 0-1.8-.3-2.5-.7l-.2 2c1.1.3 1.6.4 2.8.4 2.2 0 4.2-.9 4.2-3.4 0-3.7-4.9-2.9-4.9-4.8 0-1.2 1-1.5 1.7-1.5.8 0 1.6.2 2.3.5l.2-1.8c-.8-.3-1.7-.4-2.7-.4-2 0-3.9.9-3.9 3.4 0 3.7 4.9 2.8 4.9 4.9.1 1-1 1.4-1.9 1.4zM192.7 98.7c.7 0 1.1.1 1.4.3l.2-1.7c-.6-.2-1.2-.3-2.1-.3-2.6 0-4 1.9-4 4.2 0 2.5 1.4 4.3 4 4.3.9 0 1.5-.1 2.1-.3l-.1-1.8c-.4.2-1 .4-1.6.4-1.5 0-2.2-1.2-2.2-2.7.1-1.3 1-2.4 2.3-2.4zM196.2 97.3h2.1v8.2h-2.1zM196.2 93.7h2.1v2h-2.1zM204 97.1c-2.5 0-3.8 2-3.8 4.3 0 2.7 1.6 4.2 4.3 4.2 1.1 0 2-.2 2.8-.7v-1.7c-.8.4-1.7.8-2.7.8-1.3 0-2.2-.7-2.3-2.1h5.7c-.1-2.7-1-4.8-4-4.8zm-1.8 3.5c.1-1.1.7-1.9 1.9-1.9s1.7.9 1.7 1.9h-3.6zM217.3 105.5v-5.2c0-1.8-.8-3.2-2.8-3.2-1.1 0-2 .4-2.7 1.3v-1.1h-2v8.2h2.1v-4c0-1 .3-2.7 1.9-2.7 1.4 0 1.4 1.4 1.4 2.4v4.4h2.1zM223.5 98.7c.7 0 1.1.1 1.4.3l.2-1.7c-.6-.2-1.2-.3-2.1-.3-2.6 0-4 1.9-4 4.2 0 2.5 1.4 4.3 4 4.3.9 0 1.5-.1 2.1-.3l-.1-1.8c-.4.2-1 .4-1.6.4-1.5 0-2.2-1.2-2.2-2.7.1-1.3 1-2.4 2.3-2.4zM230.1 97.1c-2.5 0-3.8 2-3.8 4.3 0 2.7 1.6 4.2 4.3 4.2 1.1 0 2-.2 2.8-.7v-1.7c-.8.4-1.7.8-2.7.8-1.3 0-2.2-.7-2.3-2.1h5.7c-.1-2.7-1-4.8-4-4.8zm-1.8 3.5c.1-1.1.7-1.9 1.9-1.9s1.7.9 1.7 1.9h-3.6zM237.6 104.1c-.7 0-1.4-.2-2.1-.5l-.1 1.7c.8.2 1.6.3 2.4.3 1.7 0 3.4-.8 3.4-2.7 0-3-3.7-2.1-3.7-3.4 0-.7.7-.9 1.3-.9.8 0 1.3.1 1.9.4l.1-1.6c-.7-.1-1.3-.3-2.3-.3-1.7 0-3.2.8-3.2 2.5 0 3 3.7 1.9 3.7 3.5 0 .8-.8 1-1.4 1zM13.6 83.6h6.3V45.2h13.7v-5.5H0v5.5h13.6zM39.6 39.7v43.9h6.3v-20h21v20h6.3V39.7h-6.3v18.4h-21V39.7zM124.5 50.8c0-7.5-6.1-11.1-14.3-11.1H90.1v43.9h18.5c7.9 0 17.1-2.2 17.1-12.7 0-5.3-3-8.5-8.9-9.7v-.1c4.9-1.6 7.7-4.7 7.7-10.3zM101.8 48h3.4c3.9 0 7.7.4 7.7 4.4 0 3.7-4 4.7-7.8 4.7h-3.3V48zm3.4 27.3h-3.5V65h3.6c4 0 8.6.4 8.6 5.2 0 4.5-4.4 5.1-8.7 5.1zM132.4 39.7h11.7v43.9h-11.7zM182.4 69.5h-.1l-14.9-29.8h-14.9v43.9h10.4v-30h.1l15.4 30h14.5V39.7h-10.5zM228.5 47.6c2.8 0 7 .7 10.7 2.8l.9-9.6c-4.3-1.6-10.4-1.9-13.3-1.9-16.1 0-27.7 6.3-27.7 22.9 0 16.6 13.5 22.5 25.2 22.5 4 0 9.6-.1 17-2V57.9h-18.2v8.3h6.8v8.7c-1.1.5-2.6.8-4.1.8-8.5 0-14.6-5.2-14.6-13.8 0-10.3 7.8-14.3 17.3-14.3zM280.2 48v-8.3h-30.9v43.9h31.6v-8.3H261v-9.9h18.1v-8.3H261V48zM317.8 69.5h-.1l-14.8-29.8H288v43.9h10.4v-30h.1l15.3 30h14.5V39.7h-10.5z"/>
	</g>
</svg>